<svg width="544" height="319" viewBox="0 0 544 319" fill="none" xmlns="http://www.w3.org/2000/svg">
<path d="M0 319V0H47V319H0Z" fill="black"/>
<path d="M140.676 319H55.1758V0H140.676L156.676 16V302.5L140.676 319ZM110.176 296V23.5H101.676V296H110.176Z" fill="black"/>
<path d="M266.051 16V302.5L250.051 319H180.551L164.551 302.5V16L180.551 0H250.051L266.051 16ZM219.551 296V23.5H211.551V296H219.551Z" fill="black"/>
<path d="M328.926 296V319H289.926L273.926 302.5V0H320.926V296H328.926Z" fill="black"/>
<path d="M387.52 296V160L403.02 144H434.02V302.5L418.02 319H348.52L332.52 302.5V16L348.52 0H418.02L434.02 16V136.5H403.02L387.52 120.5V23.5H379.52V296H387.52Z" fill="black"/>
<path d="M488.895 97.5L543.395 154V302L527.395 319H457.895L441.895 302V154H467.395L488.895 176V296H496.895V172.5L441.895 116V16L457.895 0H527.395L543.395 16V113L515.395 113.5L496.895 94V23.5H488.895V97.5Z" fill="black"/>
</svg>
