<svg width="150" height="100" viewBox="0 0 150 100" fill="none" xmlns="http://www.w3.org/2000/svg">
<path d="M0 100V0H12.974V100H0Z" fill="white"/>
<path d="M38.8325 100H15.2309V0H38.8325L43.2492 5.01567V94.8276L38.8325 100ZM30.4132 92.79V7.36677H28.0668V92.79H30.4132Z" fill="white"/>
<path d="M73.4413 5.01567V94.8276L69.0247 100H49.8397L45.423 94.8276V5.01567L49.8397 0H69.0247L73.4413 5.01567ZM60.6054 92.79V7.36677H58.397V92.79H60.6054Z" fill="white"/>
<path d="M90.7975 92.79V100H80.0318L75.6152 94.8276V0H88.5892V92.79H90.7975Z" fill="white"/>
<path d="M106.972 92.79V50.1567L111.251 45.1411H119.808V94.8276L115.391 100H96.2062L91.7895 94.8276V5.01567L96.2062 0H115.391L119.808 5.01567V42.79H111.251L106.972 37.7743V7.36677H104.764V92.79H106.972Z" fill="white"/>
<path d="M134.956 30.5643L150 48.2759V94.6709L145.583 100H126.398L121.982 94.6709V48.2759H129.021L134.956 55.1724V92.79H137.164V54.0752L121.982 36.3636V5.01567L126.398 0H145.583L150 5.01567V35.4232L142.271 35.5799L137.164 29.4671V7.36677H134.956V30.5643Z" fill="white"/>
</svg>
