<svg width="20" height="28" viewBox="0 0 20 28" fill="none" xmlns="http://www.w3.org/2000/svg">
<path d="M5.00502 22H14.9952V24H5.00502V22ZM7.00305 26H12.9972V28H7.00305V26ZM10.0001 0C7.35055 0 4.80951 1.05357 2.93598 2.92893C1.06246 4.8043 0.00992409 7.34784 0.00992409 10C-0.0576353 11.4533 0.220491 12.902 0.821422 14.2267C1.42235 15.5514 2.32892 16.7144 3.46653 17.62C4.46555 18.55 5.00502 19.08 5.00502 20H7.00305C7.00305 18.16 5.89414 17.13 4.8152 16.14C3.88148 15.4243 3.13732 14.4903 2.64791 13.4198C2.1585 12.3494 1.93877 11.1752 2.00796 10C2.00796 7.87827 2.84999 5.84344 4.34881 4.34315C5.84763 2.84285 7.88046 2 10.0001 2C12.1198 2 14.1526 2.84285 15.6514 4.34315C17.1502 5.84344 17.9923 7.87827 17.9923 10C18.0603 11.176 17.839 12.3508 17.3478 13.4213C16.8567 14.4918 16.1106 15.4253 15.175 16.14C14.1061 17.14 12.9972 18.14 12.9972 20H14.9952C14.9952 19.08 15.5247 18.55 16.5337 17.61C17.6705 16.706 18.5767 15.5447 19.1776 14.2217C19.7785 12.8987 20.0571 11.4518 19.9903 10C19.9903 8.68678 19.7319 7.38642 19.2298 6.17317C18.7278 4.95991 17.9919 3.85752 17.0642 2.92893C16.1366 2.00035 15.0353 1.26375 13.8232 0.761205C12.6111 0.258658 11.312 0 10.0001 0Z" fill="white"/>
</svg>
