<svg width="18" height="20" viewBox="0 0 18 20" fill="none" xmlns="http://www.w3.org/2000/svg">
<path d="M3.80813 15.1278H4.93313V1.11111H3.80813V15.1278ZM2.50875 20C1.81125 20 1.21875 19.7593 0.73125 19.2778C0.24375 18.7948 0 18.2096 0 17.5222V2.47778C0 1.78963 0.24375 1.20444 0.73125 0.722222C1.22025 0.240741 1.81275 0 2.50875 0H14.1919V16.2389H2.50987C2.13337 16.2389 1.80825 16.3656 1.5345 16.6189C1.26075 16.8722 1.12425 17.1859 1.125 17.56C1.12575 17.9341 1.26225 18.2489 1.5345 18.5044C1.80675 18.76 2.13188 18.8881 2.50987 18.8889H16.875V2.22222H18V20H2.50875Z" fill="white"/>
</svg>
